 <svg  version="1.0" xmlns="http://www.w3.org/2000/svg"  width="300.000000pt" height="300.000000pt" viewBox="0 0 300.000000 300.000000"  preserveAspectRatio="xMidYMid meet">  <g transform="translate(0.000000,300.000000) scale(0.100000,-0.100000)" fill="#0d1645" stroke="none"> <path d="M1387 1966 c-7 -8 -28 -37 -46 -65 l-33 -51 -123 0 -123 0 -107 -157 c-60 -87 -108 -165 -109 -173 -1 -13 46 -15 355 -18 l355 -2 125 182 c69 101 132 194 139 208 12 23 14 23 24 6 6 -10 68 -102 138 -205 85 -123 134 -186 145 -186 37 0 13 47 -132 258 l-149 217 -222 0 c-178 0 -225 -3 -237 -14z m421 -22 c30 -6 31 -7 13 -23 -11 -9 -63 -81 -117 -161 -134 -200 -159 -230 -192 -230 -21 0 -27 5 -28 23 -1 13 -29 66 -63 118 -57 90 -97 129 -119 115 -5 -3 -42 -53 -81 -112 -48 -71 -70 -112 -66 -124 5 -16 -2 -19 -60 -25 -71 -8 -190 -3 -201 8 -11 10 148 255 181 279 5 4 60 8 122 8 124 0 106 -9 186 94 l28 36 183 0 c101 0 197 -3 214 -6z m-340 -386 c2 -5 -65 -8 -148 -8 -83 0 -150 3 -148 8 2 4 36 56 76 115 l73 108 72 -108 c40 -59 74 -111 75 -115z"/> <path d="M1595 1922 l-180 -3 -31 -47 -31 -47 90 -132 c50 -73 92 -131 93 -130 16 21 244 360 242 361 -2 0 -84 0 -183 -2z m120 -44 c-3 -13 -9 -24 -15 -26 -5 -2 -10 -8 -10 -13 0 -14 -70 -119 -79 -119 -5 0 -11 -8 -15 -17 -20 -61 -86 -113 -86 -68 0 8 -4 15 -10 15 -5 0 -10 7 -10 15 0 8 -4 15 -8 15 -5 0 -17 18 -28 39 -10 22 -22 37 -25 35 -8 -4 -31 44 -34 71 -1 11 10 32 24 47 26 26 28 26 163 27 137 1 137 1 133 -21z"/> <path d="M1170 1792 l-85 -4 -82 -119 -82 -119 89 0 88 0 74 107 c85 124 91 134 86 136 -1 1 -41 1 -88 -1z m30 -36 c0 -8 -5 -18 -10 -21 -6 -4 -8 -10 -5 -14 2 -5 -7 -21 -20 -35 -14 -15 -25 -31 -25 -37 0 -5 -3 -9 -7 -9 -5 0 -15 -13 -24 -29 -14 -24 -24 -29 -64 -33 -26 -2 -49 0 -52 5 -7 11 17 67 28 67 5 0 15 16 23 34 8 19 24 41 35 48 12 7 21 18 21 25 0 9 16 13 50 13 37 0 50 -4 50 -14z"/> <path d="M1320 1645 c0 -8 9 -15 20 -15 11 0 20 7 20 15 0 8 -9 15 -20 15 -11 0 -20 -7 -20 -15z"/> <path d="M1277 1606 c-7 -16 1 -26 20 -26 7 0 13 9 13 20 0 23 -25 27 -33 6z"/> <path d="M1327 1613 c-14 -13 -6 -33 13 -33 13 0 20 7 20 20 0 19 -20 27 -33 13z"/> <path d="M1770 1650 c0 -27 3 -30 30 -30 27 0 30 3 30 30 0 27 -3 30 -30 30 -27 0 -30 -3 -30 -30z"/> <path d="M1850 1649 c0 -27 3 -30 26 -27 21 2 28 9 30 31 2 24 -1 27 -27 27 -26 0 -29 -3 -29 -31z"/> <path d="M1770 1576 c0 -31 2 -32 31 -28 25 4 30 8 27 30 -2 19 -10 26 -30 28 -25 2 -28 0 -28 -30z"/> <path d="M1848 1578 c-4 -26 -2 -28 28 -28 30 0 32 3 30 28 -3 21 -8 27 -29 27 -20 1 -26 -5 -29 -27z"/> <path d="M815 1462 c-3 -8 -5 -26 -4 -40 l1 -27 10 28 c9 24 14 27 59 27 l49 0 0 -109 c0 -112 -4 -124 -45 -134 -11 -2 16 -5 60 -5 44 0 71 3 60 5 -41 10 -45 22 -45 134 l0 109 45 0 c40 0 47 -3 56 -26 13 -36 22 -24 14 17 l-6 34 -125 0 c-94 0 -125 -3 -129 -13z"/> <path d="M1145 1470 c-27 -4 -40 -8 -27 -8 21 -2 22 -5 22 -122 0 -116 -1 -121 -22 -130 -17 -6 -4 -9 47 -8 44 0 61 3 45 7 -22 6 -25 13 -28 59 -3 51 -3 52 25 52 24 0 34 -9 60 -54 21 -34 44 -58 63 -66 40 -17 50 -6 18 20 -15 11 -38 41 -53 66 l-27 46 21 14 c29 21 28 74 -3 103 -27 25 -70 32 -141 21z m109 -26 c19 -18 21 -77 4 -92 -7 -5 -28 -13 -45 -17 l-33 -7 0 66 0 66 29 0 c16 0 37 -7 45 -16z"/> <path d="M1751 1461 c-40 -40 -26 -81 48 -134 57 -42 71 -70 45 -98 -27 -30 -68 -24 -98 14 -21 26 -26 29 -25 12 1 -29 12 -50 29 -53 66 -16 78 -14 110 15 47 42 37 80 -36 136 -77 59 -85 110 -18 110 19 0 36 -10 51 -29 20 -25 23 -26 23 -9 0 34 -16 47 -63 52 -36 4 -49 1 -66 -16z"/> <path d="M1925 1441 c-8 -41 1 -53 14 -17 9 23 16 26 56 26 l45 0 0 -114 0 -114 -27 -10 c-23 -9 -15 -10 47 -10 46 0 65 3 50 7 -24 7 -25 9 -30 124 l-5 117 47 0 c41 0 47 -3 57 -27 10 -27 10 -27 8 10 l-2 38 -127 2 -127 2 -6 -34z"/> <path d="M1398 1460 c21 -9 22 -15 22 -109 0 -97 1 -100 29 -124 41 -34 103 -42 150 -20 49 25 61 53 61 156 0 81 2 88 23 97 16 7 7 9 -38 8 -33 0 -51 -3 -40 -5 11 -3 23 -10 27 -17 13 -19 9 -159 -5 -186 -22 -45 -114 -57 -151 -20 -11 11 -25 196 -16 210 3 4 12 10 20 13 8 3 -12 5 -45 6 -46 0 -55 -2 -37 -9z"/> <path d="M780 1090 c0 -53 3 -70 14 -70 9 0 12 7 9 20 -4 16 0 20 20 20 32 0 57 24 57 54 0 32 -19 46 -62 46 l-38 0 0 -70z m75 20 c0 -20 -6 -26 -27 -28 -25 -3 -28 0 -28 28 0 28 3 31 28 28 21 -2 27 -8 27 -28z"/> <path d="M900 1090 c0 -40 4 -70 10 -70 6 0 10 9 10 20 0 14 7 20 21 20 12 0 23 -8 26 -20 3 -11 11 -20 19 -20 11 0 11 5 2 25 -9 19 -9 28 0 37 15 15 15 51 0 66 -7 7 -29 12 -50 12 l-38 0 0 -70z m75 20 c0 -20 -6 -26 -27 -28 -25 -3 -28 0 -28 28 0 28 3 31 28 28 21 -2 27 -8 27 -28z"/> <path d="M1040 1140 c-45 -45 -11 -120 54 -120 37 0 76 36 76 70 0 10 -9 29 -21 44 -26 33 -79 36 -109 6z m95 -24 c26 -39 3 -76 -48 -76 -36 0 -56 38 -39 75 16 34 65 35 87 1z"/> <path d="M1190 1090 c0 -40 4 -70 10 -70 6 0 10 9 10 20 0 14 7 20 23 20 27 0 57 28 57 53 0 26 -29 47 -66 47 l-34 0 0 -70z m76 35 c8 -20 -13 -45 -37 -45 -14 0 -19 7 -19 30 0 25 4 30 25 30 14 0 28 -7 31 -15z"/> <path d="M1310 1090 l0 -70 40 0 c22 0 40 5 40 10 0 6 -13 10 -30 10 -16 0 -30 5 -30 10 0 6 11 10 25 10 14 0 25 5 25 10 0 6 -11 10 -25 10 -21 0 -25 5 -25 30 0 27 3 30 30 30 17 0 30 5 30 10 0 6 -18 10 -40 10 l-40 0 0 -70z"/> <path d="M1410 1090 c0 -40 4 -70 10 -70 6 0 10 9 10 20 0 13 7 20 19 20 11 0 23 -9 26 -20 3 -11 13 -20 22 -20 14 0 14 2 0 23 -13 20 -13 26 -1 42 8 10 14 24 14 31 0 23 -31 44 -66 44 l-34 0 0 -70z m74 34 c8 -21 -11 -44 -35 -44 -14 0 -19 7 -19 30 0 25 4 30 24 30 13 0 27 -7 30 -16z"/> <path d="M1520 1150 c0 -5 10 -10 21 -10 20 0 21 -4 17 -60 -3 -45 -1 -60 9 -60 9 0 13 17 13 60 0 47 3 60 15 60 8 0 15 5 15 10 0 6 -20 10 -45 10 -25 0 -45 -4 -45 -10z"/> <path d="M1620 1153 c0 -5 9 -19 20 -33 11 -14 20 -41 20 -62 0 -27 4 -38 15 -38 11 0 13 8 9 30 -5 23 0 38 20 64 30 39 31 46 13 46 -8 0 -19 -12 -26 -27 l-13 -28 -20 28 c-19 26 -38 36 -38 20z"/> <path d="M1800 1090 c0 -51 4 -70 13 -70 9 0 12 10 10 33 l-4 32 30 -34 c16 -18 34 -32 40 -30 6 2 -3 19 -20 37 l-31 34 33 34 c20 21 27 34 18 34 -7 0 -26 -14 -41 -32 l-27 -33 -1 33 c0 17 -4 32 -10 32 -6 0 -10 -30 -10 -70z"/> <path d="M1920 1090 l0 -70 40 0 c22 0 40 5 40 10 0 6 -13 10 -30 10 -16 0 -30 5 -30 10 0 6 11 10 25 10 14 0 25 5 25 10 0 6 -11 10 -25 10 -21 0 -25 5 -25 30 0 27 3 30 30 30 17 0 30 5 30 10 0 6 -18 10 -40 10 l-40 0 0 -70z"/> <path d="M2016 1148 c4 -7 16 -25 26 -39 12 -19 16 -36 12 -58 -5 -24 -3 -31 10 -31 12 0 16 9 16 36 0 21 9 49 21 66 28 39 14 51 -16 14 l-24 -30 -12 27 c-7 15 -19 27 -26 27 -9 0 -11 -5 -7 -12z"/> <path d="M2147 1153 c-18 -17 -6 -53 24 -68 48 -25 31 -58 -21 -42 -3 1 -6 -2 -7 -8 -2 -5 14 -10 35 -10 33 0 37 3 40 27 3 21 -3 30 -27 43 -40 20 -41 45 -1 45 17 0 30 5 30 10 0 11 -63 14 -73 3z"/> </g> </svg> 